<svg width="151" height="150" viewBox="0 0 151 150" fill="none" xmlns="http://www.w3.org/2000/svg">
<path d="M97.375 65.625L78.625 84.375L66.125 71.875L47.375 90.625" stroke="#3FE1DB" stroke-width="3" stroke-linecap="round" stroke-linejoin="round"/>
<path d="M91.125 28.125H31.825C30.7049 28.125 30.1448 28.125 29.717 28.343C29.3407 28.5347 29.0347 28.8407 28.843 29.217C28.625 29.6448 28.625 30.2049 28.625 31.325V118.675C28.625 119.795 28.625 120.355 28.843 120.783C29.0347 121.159 29.3407 121.465 29.717 121.657C30.1448 121.875 30.7049 121.875 31.825 121.875H119.175C120.295 121.875 120.855 121.875 121.283 121.657C121.659 121.465 121.965 121.159 122.157 120.783C122.375 120.355 122.375 119.795 122.375 118.675V59.375" stroke="#3FE1DB" stroke-width="3" stroke-linecap="round"/>
<path d="M130.25 34.375C130.25 42.176 123.926 48.5 116.125 48.5C108.324 48.5 102 42.176 102 34.375C102 26.574 108.324 20.25 116.125 20.25C123.926 20.25 130.25 26.574 130.25 34.375Z" stroke="#3FE1DB" stroke-width="3" stroke-linecap="round"/>
</svg>
